# xmcd
#
# Track frame offsets: 
#        150
#        13586
#        32566
#        49860
#        62105
#        75841
#        94559
#        106085
#        123600
#        138256
#        151604
#
# Disc length: 2349 seconds
#
# Revision: 0
# Processed by: cddbd v1.5.2PL0 Copyright (c) Steve Scherf et al.
# Submitted via: ExactAudioCopy v0.99pb3
#
DISCID=77092b0b
DTITLE=Wilder Mountain - Bluer Shade of Green
DYEAR=2010
DGENRE=Bluegrass
TTITLE0=01 Bluer Shade of Green (by Eric Beaty)
TTITLE1=02 Lonely Tonight (by Eric Beaty)
TTITLE2=03 Little Bug Shuffle (by Cecil Garrett)
TTITLE3=04 Little Molly (by Tammy Melton)
TTITLE4=05 Cumberland River (by Randall Hylton)
TTITLE5=06 The Legend of Captain John (by Eric Beaty)
TTITLE6=07 There Is A Time (by Rodney Dillard, Mitch Jayne)
TTITLE7=08 Second Wind (by Eric Beaty)
TTITLE8=09 Kentucky Mandolin (by Bill Monroe)
TTITLE9=10 How Low (by Tammy Melton)
TTITLE10=11 Wayfaring Stranger (Traditional, Unknown)
EXTD=
EXTT0=
EXTT1=
EXTT2=
EXTT3=
EXTT4=
EXTT5=
EXTT6=
EXTT7=
EXTT8=
EXTT9=
EXTT10=
PLAYORDER=
